PathFileType	4	(X/Y/Z)	 s01c0401.trc
DataRate	CameraRate	NumFrames	NumMarkers	Units	OrigDataRate	OrigDataStartFrame	OrigNumFrames
200	200	4	48	mm	200	1751	2000
Frame#	Time	racr			lacr			c7			jug			rlel			rdr			llel			ldr			s2			lic			ric			lasi			rasi			rpsi			lpsi			rgt			lgt			rth1			rth2			rth3			rth4			rlfc			rsh1			rsh2			rsh3			rsh4			rlmal			rmmal			rcal			rtoe			rmt5			lth1			lth2			lth4			lth3			llfc			lsh1			lsh2			lsh3			lsh4			llmal			lmmal			lcal			ltoe			lmt5			SBIKE			LBIKE			RBIKE			
		X1	Y1	Z1	X2	Y2	Z2	X3	Y3	Z3	X4	Y4	Z4	X5	Y5	Z5	X6	Y6	Z6	X7	Y7	Z7	X8	Y8	Z8	X9	Y9	Z9	X10	Y10	Z10	X11	Y11	Z11	X12	Y12	Z12	X13	Y13	Z13	X14	Y14	Z14	X15	Y15	Z15	X16	Y16	Z16	X17	Y17	Z17	X18	Y18	Z18	X19	Y19	Z19	X20	Y20	Z20	X21	Y21	Z21	X22	Y22	Z22	X23	Y23	Z23	X24	Y24	Z24	X25	Y25	Z25	X26	Y26	Z26	X27	Y27	Z27	X28	Y28	Z28	X29	Y29	Z29	X30	Y30	Z30	X31	Y31	Z31	X32	Y32	Z32	X33	Y33	Z33	X34	Y34	Z34	X35	Y35	Z35	X36	Y36	Z36	X37	Y37	Z37	X38	Y38	Z38	X39	Y39	Z39	X40	Y40	Z40	X41	Y41	Z41	X42	Y42	Z42	X43	Y43	Z43	X44	Y44	Z44	X45	Y45	Z45	X46	Y46	Z46	X47	Y47	Z47	X48	Y48	Z48	
1751	8.7550	722.907700	1281.497028	-36.600272	734.174535	1248.252701	-419.915598	748.952087	1360.622962	-221.368084	707.645885	1199.620278	-218.663148	560.815802	1059.639780	70.572739	704.506209	888.761652	-23.320770	556.175943	1055.170387	-550.906180	695.525584	884.560611	-451.338388	194.587426	1228.020035	-232.170847	364.837892	1218.208264	-398.001399	347.069203	1197.643559	-71.075073	359.415744	1159.514916	-375.147660	365.121847	1148.432432	-105.054681	231.316737	1257.595476	-177.577374	231.535987	1267.019419	-282.247374	275.985794	1087.036864	-51.993846	293.315856	1089.738087	-429.758806	340.661556	964.232171	-41.251240	385.981183	895.156054	-49.284367	430.074301	817.820730	-66.204846	433.526327	923.536810	-62.622295	463.820950	710.876714	-90.127816	408.813839	603.590223	-57.963427	381.842809	523.344727	-64.099783	345.085739	442.981768	-75.303227	424.460941	509.184976	-104.522085	281.816607	334.795308	-94.413511	323.033821	341.254997	-174.098323	233.153212	320.742034	-148.823956	488.271810	227.047167	-131.446800	378.857369	227.102143	-63.415620	349.005062	972.146074	-447.811491	413.245840	913.367325	-441.120453	451.067179	952.469839	-427.754797	468.671599	849.374758	-425.191677	510.065764	755.199737	-407.415183	401.169671	718.523135	-439.006427	328.266497	672.541846	-435.123088	254.577339	629.090005	-424.838699	359.330804	625.516343	-408.857441	149.914445	570.806562	-413.881750	169.304308	551.024928	-334.307865	100.053097	595.148852	-372.281771	205.437654	339.016141	-369.469889	141.793470	421.428983	-439.353233	-270.640175	878.102853	-265.316748	-11.914495	84.673119	-453.541805	-20.214996	81.043911	-53.602370	
1752	8.7600	723.665711	1282.021440	-37.953710	733.238195	1248.433313	-420.693293	748.772132	1360.723387	-222.378650	707.635822	1200.030489	-219.322933	562.147435	1059.925269	70.198362	704.955674	888.936591	-23.055198	555.121817	1054.745698	-550.634106	695.341509	884.613205	-451.253697	194.570976	1227.662381	-230.025089	363.929880	1218.570767	-396.911439	347.704976	1195.885299	-70.423443	358.754485	1159.740963	-373.990803	365.114298	1146.368354	-104.170438	231.538802	1256.740286	-175.287516	231.234143	1266.792619	-280.034021	275.012128	1084.896223	-51.410160	292.769963	1091.431272	-429.234284	336.687538	960.802666	-40.505386	380.000760	890.546492	-48.997117	421.848583	812.061607	-66.250927	428.357920	917.572050	-62.016905	453.940753	704.445059	-89.721550	400.218717	596.918569	-57.653862	374.223454	516.422734	-63.927677	338.633483	435.566110	-75.187192	417.083133	502.830636	-104.381882	276.414618	327.118101	-94.764568	316.769996	333.147789	-174.247860	228.262185	313.768455	-149.495865	482.282490	217.447661	-131.541561	372.879485	218.749001	-63.520047	350.532824	975.089196	-446.991682	416.451069	917.992506	-441.225477	453.353256	957.844565	-427.317393	473.534425	855.347388	-425.917929	517.011670	761.951608	-407.872501	407.562763	726.047135	-439.191053	334.286538	680.457876	-435.044991	259.950794	638.036833	-424.910511	365.063743	633.205226	-409.479990	155.265765	579.618914	-413.617429	175.052942	559.967778	-333.836369	104.827602	603.469441	-371.995783	212.254020	348.223340	-369.366190	147.949682	430.215506	-439.204048	-270.704785	878.122594	-265.351007	-11.915649	84.676271	-453.543058	-20.219902	81.042591	-53.591922	
1753	8.7650	724.377101	1282.209310	-40.981226	732.229941	1248.572117	-421.490361	748.506313	1360.799386	-223.381677	707.673042	1200.313872	-220.059129	563.466996	1060.315874	69.850036	705.498118	889.154922	-22.658061	554.020003	1054.353486	-550.400055	695.359955	884.834773	-450.967208	194.507039	1227.289909	-227.838483	362.985581	1218.846842	-395.815625	348.399640	1193.995456	-69.846143	358.026781	1159.967925	-372.878503	365.103092	1144.185500	-103.392286	231.679517	1255.890321	-172.870262	230.917483	1266.503682	-277.794447	274.054771	1082.685436	-50.773044	292.148778	1093.172834	-428.723868	332.700466	957.571459	-39.742600	374.016337	886.214567	-48.567163	413.624606	806.606294	-66.091788	423.207956	911.916420	-61.338669	444.102414	698.305342	-89.147473	391.743420	590.690885	-57.299039	366.648996	509.877520	-63.698024	331.986757	428.632606	-75.014746	409.503505	496.900459	-104.055910	270.876873	320.112034	-95.047491	310.957460	325.831867	-174.073883	222.966215	307.773947	-149.021914	475.900975	208.115949	-131.613845	366.509565	210.752258	-63.721918	351.939916	978.117920	-446.200868	419.437163	922.691844	-441.359982	455.311368	963.331771	-426.993619	478.044192	861.259045	-426.636185	523.800455	768.453308	-408.420999	413.970504	733.631339	-439.449871	340.295168	688.683882	-435.235715	265.278888	646.750510	-425.183876	370.911825	640.827441	-410.086682	160.856927	588.049318	-413.399756	180.980874	568.592301	-333.313388	109.819475	611.411004	-371.783430	219.526338	357.109781	-369.128768	154.515602	438.635546	-439.043308	-270.728112	878.127684	-265.308702	-11.919924	84.677325	-453.547174	-20.224332	81.049387	-53.593095	
1754	8.7700	725.075503	1283.114089	-40.811032	731.192195	1248.698791	-422.318879	748.174223	1360.847192	-224.445909	707.681451	1200.533268	-220.882744	564.709049	1060.804207	69.532281	706.038263	889.255699	-22.106567	552.929401	1053.893291	-550.120956	695.198373	884.877552	-450.852674	194.438319	1226.830842	-225.594057	362.005630	1219.007440	-394.726164	349.077182	1192.044751	-69.447919	357.193478	1160.106647	-371.860994	365.083765	1141.891012	-102.725924	231.879769	1254.952833	-170.441262	230.543823	1266.154827	-275.595958	273.131655	1080.441304	-50.140293	291.233931	1094.950725	-428.607905	328.792844	954.664006	-38.942770	368.284473	882.140230	-47.996296	405.637298	801.744956	-65.535843	417.844729	906.799345	-60.668928	434.581067	692.586597	-88.484025	383.325998	584.996956	-56.816803	359.126219	503.928168	-63.353782	325.260320	422.321043	-74.796427	402.093747	491.413666	-103.683747	265.047049	313.587984	-95.552124	305.236877	319.197232	-173.727073	217.606141	302.191062	-149.230476	468.913699	199.353685	-130.914997	359.599172	203.221192	-63.873882	353.352917	981.179837	-445.511442	422.162039	927.391794	-441.384184	457.170659	968.653824	-426.652616	482.335500	867.283716	-427.209941	530.139381	775.219440	-409.215816	420.381018	741.242585	-439.762211	346.473511	696.772497	-435.452913	270.652443	655.499953	-425.658057	376.956215	648.520153	-410.771688	166.669092	596.064402	-413.223895	186.989152	576.881257	-332.958668	114.964622	618.831934	-371.600080	227.501683	365.895115	-369.033080	161.522553	446.630943	-438.886128	-270.794268	878.103520	-265.210864	-11.919736	84.680923	-453.550116	-20.220872	81.046367	-53.592288	
